Coordinates
version=1
nRows=39
nColumns=6
inDegrees=yes

Units are S.I. units (second, meters, Newtons, ...)
If the header above contains a line with 'inDegrees', this indicates whether rotational values are in degrees (yes) or radians (no).

endheader
time	foot_tx	hip_flexion_r	knee_angle_r	ankle_angle_r	lumbar
     43.30000000	      0.18086166	     56.22817816	    -73.90205713	      5.73163533	    -31.22819566
     43.31000000	      0.18082280	     56.43865997	    -73.88663832	      5.74224963	    -31.41830066
     43.32000000	      0.18078509	     56.65878292	    -73.87008056	      5.75323880	    -31.61346086
     43.33000000	      0.18074815	     56.88838979	    -73.85246209	      5.76482820	    -31.81386494
     43.34000000	      0.18071136	     57.12680418	    -73.83366711	      5.77745250	    -32.01961021
     43.35000000	      0.18067374	     57.37295132	    -73.81363489	      5.79176247	    -32.23097910
     43.36000000	      0.18063431	     57.62560696	    -73.79231190	      5.80836979	    -32.44856237
     43.37000000	      0.18059267	     57.88371707	    -73.76958605	      5.82761774	    -32.67316966
     43.38000000	      0.18054962	     58.14658546	    -73.74554085	      5.84954873	    -32.90574272
     43.39000000	      0.18050454	     58.41488286	    -73.71958778	      5.87396800	    -33.14610375
     43.40000000	      0.18045803	     58.69007195	    -73.69231826	      5.90055452	    -33.39350161
     43.41000000	      0.18041095	     58.97509453	    -73.66397837	      5.92873868	    -33.64597544
     43.42000000	      0.18036609	     59.27365795	    -73.63439151	      5.95760590	    -33.90055993
     43.43000000	      0.18031829	     59.64595623	    -73.60890727	      5.98483214	    -34.09212121
     43.44000000	      0.18027498	     60.01310972	    -73.58002931	      6.01348826	    -34.30590938
     43.45000000	      0.18023427	     60.39814618	    -73.54992277	      6.04338801	    -34.51473346
     43.46000000	      0.18019554	     60.79467018	    -73.51792675	      6.07564837	    -34.72340210
     43.47000000	      0.18015976	     61.19871464	    -73.48324022	      6.11076134	    -34.93454373
     43.48000000	      0.18012402	     61.60616165	    -73.44728262	      6.15047134	    -35.15075496
     43.49000000	      0.18009002	     62.01804144	    -73.40945896	      6.19448185	    -35.37035965
     43.50000000	      0.18005967	     62.43811033	    -73.36995562	      6.24227224	    -35.58930074
     43.51000000	      0.18003431	     62.87206154	    -73.32908066	      6.29310424	    -35.80169355
     43.52000000	      0.18001548	     63.32484394	    -73.28658953	      6.34611125	    -36.00218737
     43.53000000	      0.18000223	     63.80124406	    -73.24241384	      6.40091648	    -36.18521969
     43.54000000	      0.17999861	     64.30480573	    -73.19580708	      6.45647906	    -36.34626538
     43.55000000	      0.18000188	     64.83984382	    -73.14633876	      6.51262438	    -36.47996153
     43.56000000	      0.18001839	     65.40428486	    -73.09294246	      6.56871332	    -36.58703355
     43.57000000	      0.18004644	     65.99270019	    -73.03497026	      6.62605706	    -36.67120475
     43.58000000	      0.18008639	     66.59144888	    -72.97140332	      6.68648030	    -36.74434288
     43.59000000	      0.18014544	     67.18900296	    -72.89988422	      6.75033041	    -36.81669148
     43.60000000	      0.18021386	     67.77088073	    -72.82306101	      6.82159097	    -36.90248779
     43.61000000	      0.18030248	     68.34520037	    -72.73737697	      6.89654137	    -36.99374638
     43.62000000	      0.18041133	     68.91060229	    -72.64311637	      6.97517732	    -37.09260475
     43.63000000	      0.18054070	     69.47390376	    -72.54053143	      7.05657657	    -37.19222587
     43.64000000	      0.18068085	     70.04745280	    -72.43141918	      7.14073373	    -37.27943494
     43.65000000	      0.18083155	     70.64126657	    -72.31501064	      7.22596588	    -37.34350511
     43.66000000	      0.18097918	     71.25495078	    -72.19518860	      7.31541614	    -37.38359720
     43.67000000	      0.18112706	     71.89307623	    -72.06730215	      7.40582984	    -37.39410125
     43.68000000	      0.18126763	     72.54908045	    -71.93127820	      7.49851001	    -37.38014979
